<!--?xml version="1.0" encoding="utf-8"?-->
<!-- Generator: Adobe Illustrator 18.1.1, SVG Export Plug-In . SVG Version: 6.00 Build 0)  -->

<svg version="1.1" id="_x31_0" xmlns="http://www.w3.org/2000/svg" xmlns:xlink="http://www.w3.org/1999/xlink" x="0px" y="0px" viewBox="0 0 512 512" style="width: 32px; height: 32px; opacity: 1;" xml:space="preserve">
<style type="text/css">
	.st0{fill:#374149;}
</style>
<g>
	<path class="st0" d="M483.023,135.676c-1.027-2-3.484-2.801-5.511-1.82l-20.395,9.867c-2.105,1.019-2.93,3.562-1.855,5.644
		c16.481,31.973,25.786,68.23,25.786,106.63c0,38.41-9.305,74.664-25.786,106.636c-1.074,2.082-0.25,4.626,1.855,5.645l20.395,9.863
		c2.027,0.981,4.484,0.184,5.511-1.82C501.539,340.203,512,299.308,512,255.996C512,212.692,501.539,171.796,483.023,135.676z" style="fill: rgb(58, 171, 210);"></path>
	<path class="st0" d="M421.766,160.812l-20.406,9.863c-2.125,1.031-2.934,3.606-1.836,5.695
		c12.539,23.805,19.626,50.891,19.626,79.626c0,28.714-7.086,55.824-19.626,79.633c-1.098,2.086-0.289,4.667,1.836,5.695
		l20.406,9.863c2.008,0.969,4.45,0.191,5.481-1.786c14.613-27.965,22.851-59.746,22.851-93.406c0-33.653-8.238-65.43-22.851-93.402
		C426.215,160.617,423.774,159.84,421.766,160.812z" style="fill: rgb(58, 171, 210);"></path>
	<path class="st0" d="M366.043,187.746l-20.398,9.867c-2.114,1.023-2.989,3.61-1.863,5.664c0.777,1.414,1.488,2.867,2.199,4.317
		c0.59,1.195,1.152,2.398,1.695,3.617c1.274,2.84,2.426,5.742,3.457,8.703c0.5,1.442,0.965,2.89,1.406,4.351
		c0.867,2.879,1.625,5.809,2.258,8.786c0.317,1.477,0.594,2.961,0.848,4.453c0.535,3.145,0.938,6.336,1.199,9.566
		c0.102,1.254,0.179,2.512,0.238,3.774c0.078,1.715,0.164,3.43,0.164,5.168c0,1.734-0.086,3.45-0.164,5.164
		c-0.059,1.262-0.137,2.52-0.238,3.778c-0.258,3.226-0.664,6.41-1.199,9.55c-0.254,1.5-0.535,2.996-0.852,4.481
		c-0.629,2.969-1.386,5.886-2.25,8.754c-0.442,1.469-0.91,2.926-1.414,4.375c-1.027,2.961-2.183,5.859-3.453,8.695
		c-0.543,1.219-1.106,2.422-1.692,3.614c-0.714,1.453-1.426,2.906-2.202,4.32c-1.126,2.054-0.246,4.645,1.867,5.664l20.37,9.848
		c1.981,0.957,4.395,0.214,5.438-1.723c10.684-19.812,16.738-42.484,16.738-66.519s-6.054-46.707-16.711-66.539
		C370.438,187.528,368.023,186.785,366.043,187.746z" style="fill: rgb(58, 171, 210);"></path>
	<polygon class="st0" points="0,207.719 0,303.824 0,304.117 0,304.117 0,304.277 97.523,304.277 97.523,207.719 	" style="fill: rgb(58, 171, 210);"></polygon>
	<path class="st0" d="M263.606,124.863v-0.183L136.25,199.696c-8.442,4.972-13.622,14.034-13.622,23.832v64.945
		c0,9.797,5.18,18.859,13.622,23.828l127.355,75.02V213.113l0.082-88.297L263.606,124.863z" style="fill: rgb(58, 171, 210);"></path>
</g>
</svg>
